# xmcd
#
# Track frame offsets:
#	150
#	32859
#	51783
#	74757
#	97613
#	100595
#	131346
#	135426
#	150550
#	176092
#	202630
#	240842
#	262660
#	292230
#
# Disc length: 3991
#
# Revision: 1
# Processed by: cddbd v1.5.1PL0 Copyright (c) Steve Scherf et al.
# Submitted via: CDex 1.50Beta7
# Normalized: r0:TDELIM( - )
#
DISCID=b00f950e
DTITLE=KiToBeF - Klazz - Jassik
DYEAR=1900
DGENRE=Jazz
TTITLE0=Corcovado - A.C. Jobim
TTITLE1=All the things you are - J. Kern
TTITLE2=Autumn Leaves - J. Kosma
TTITLE3=Von fremden Ländern und Menschen - Kinderszene - R. Schumann
TTITLE4=Haschemann - Kinderszene - R. Schumann
TTITLE5=Träumerei - Kinderszene - R. Schumann
TTITLE6=Ritter vom Steckenpferd - Kinderszene - R. Schumann
TTITLE7=Der Dichter spricht - Kinderszene - R. Schumann
TTITLE8=Der Sturm, Sonate op. 31,2 3. Satz - L. van Beethoven
TTITLE9=Summertime - G. Gershwin
TTITLE10=Black Vision Blues - T. Froster
TTITLE11=Perdido - J. Tizol
TTITLE12=We will meet again - B. Evans
TTITLE13=Präludiom d-moll - J.S. Bach
EXTD=
EXTT0=
EXTT1=
EXTT2=
EXTT3=
EXTT4=
EXTT5=
EXTT6=
EXTT7=
EXTT8=
EXTT9=
EXTT10=
EXTT11=
EXTT12=
EXTT13=
PLAYORDER=
